<svg xmlns="http://www.w3.org/2000/svg" xmlns:xlink="http://www.w3.org/1999/xlink"><defs><style>
    .sprite-symbol-usage {display: none;}
    .sprite-symbol-usage:target {display: inline;}
  </style><symbol viewBox="0 0 16 16" fill="none" id="BookmarksSimple">
<path d="M10.5 14L6.99954 11.5L3.5 14V4.5C3.5 4.36739 3.55268 4.24021 3.64645 4.14645C3.74021 4.05268 3.86739 4 4 4H10C10.1326 4 10.2598 4.05268 10.3536 4.14645C10.4473 4.24021 10.5 4.36739 10.5 4.5V14Z" stroke="white" stroke-width="1.5" stroke-linecap="round" stroke-linejoin="round" />
<path d="M5.5 2H12C12.1326 2 12.2598 2.05268 12.3536 2.14645C12.4473 2.24021 12.5 2.36739 12.5 2.5V12" stroke="white" stroke-width="1.5" stroke-linecap="round" stroke-linejoin="round" />
</symbol><symbol viewBox="0 0 16 16" fill="none" id="ChartLineUp">
<path d="M14 13H2V3" stroke="#F5F5F5" stroke-width="1.5" stroke-linecap="round" stroke-linejoin="round" />
<path d="M13 4L8 9L6 7L2 11" stroke="#F5F5F5" stroke-width="1.5" stroke-linecap="round" stroke-linejoin="round" />
<path d="M13 6.5V4H10.5" stroke="#F5F5F5" stroke-width="1.5" stroke-linecap="round" stroke-linejoin="round" />
</symbol><symbol viewBox="0 0 17 16" fill="none" id="CirclesFour">
<path d="M5.25 7C6.49264 7 7.5 5.99264 7.5 4.75C7.5 3.50736 6.49264 2.5 5.25 2.5C4.00736 2.5 3 3.50736 3 4.75C3 5.99264 4.00736 7 5.25 7Z" stroke="#F5F5F5" stroke-width="1.5" stroke-linecap="round" stroke-linejoin="round" />
<path d="M11.75 7C12.9926 7 14 5.99264 14 4.75C14 3.50736 12.9926 2.5 11.75 2.5C10.5074 2.5 9.5 3.50736 9.5 4.75C9.5 5.99264 10.5074 7 11.75 7Z" stroke="#F5F5F5" stroke-width="1.5" stroke-linecap="round" stroke-linejoin="round" />
<path d="M5.25 13.5C6.49264 13.5 7.5 12.4926 7.5 11.25C7.5 10.0074 6.49264 9 5.25 9C4.00736 9 3 10.0074 3 11.25C3 12.4926 4.00736 13.5 5.25 13.5Z" stroke="#F5F5F5" stroke-width="1.5" stroke-linecap="round" stroke-linejoin="round" />
<path d="M11.75 13.5C12.9926 13.5 14 12.4926 14 11.25C14 10.0074 12.9926 9 11.75 9C10.5074 9 9.5 10.0074 9.5 11.25C9.5 12.4926 10.5074 13.5 11.75 13.5Z" stroke="#F5F5F5" stroke-width="1.5" stroke-linecap="round" stroke-linejoin="round" />
</symbol><symbol viewBox="0 0 16 16" fill="none" id="Eyedropper">
<path d="M11.2375 7.23746L11.5429 7.54292C11.6358 7.63577 11.7095 7.74601 11.7597 7.86734C11.81 7.98866 11.8358 8.1187 11.8358 8.25002C11.8358 8.38134 11.81 8.51138 11.7597 8.63271C11.7095 8.75403 11.6358 8.86427 11.5429 8.95713L11.1036 9.39647C11.0098 9.49024 10.8827 9.54291 10.75 9.54291C10.6174 9.54291 10.4903 9.49024 10.3965 9.39647L6.6036 5.60357C6.50983 5.50981 6.45715 5.38263 6.45715 5.25002C6.45715 5.11741 6.50983 4.99024 6.6036 4.89647L7.04294 4.45713C7.1358 4.36427 7.24604 4.29061 7.36736 4.24036C7.48869 4.1901 7.61872 4.16424 7.75005 4.16424C7.88137 4.16424 8.0114 4.1901 8.13273 4.24036C8.25406 4.29061 8.3643 4.36427 8.45715 4.45713L8.76261 4.76258L10.4869 3.03833C11.1611 2.36406 12.2597 2.32276 12.9522 2.97829C13.1222 3.139 13.2583 3.33218 13.3524 3.54639C13.4464 3.7606 13.4966 3.9915 13.4999 4.22543C13.5032 4.45936 13.4595 4.69157 13.3715 4.90834C13.2835 5.12511 13.1529 5.32203 12.9875 5.48746L11.2375 7.23746Z" stroke="#F5F5F5" stroke-width="1.5" stroke-linecap="round" stroke-linejoin="round" />
<path d="M9.9142 8.91412L6.4142 12.4141C6.16602 12.6625 5.8568 12.8412 5.51764 12.9321C5.17849 13.023 4.82138 13.023 4.48223 12.9321L3.01959 13.5706C2.92748 13.6108 2.82539 13.6223 2.72664 13.6037C2.62788 13.585 2.53705 13.537 2.46598 13.4659V13.4659C2.41496 13.4149 2.3805 13.3497 2.36709 13.2788C2.35368 13.2079 2.36195 13.1346 2.39082 13.0684L3.06782 11.5177C2.97689 11.1785 2.97689 10.8214 3.06781 10.4823C3.15874 10.1431 3.33738 9.83388 3.58577 9.58569L7.08577 6.08569" stroke="#F5F5F5" stroke-width="1.5" stroke-linecap="round" stroke-linejoin="round" />
</symbol><symbol viewBox="0 0 17 16" fill="none" id="Link">
<path d="M8.14556 4.4647L9.383 3.22726C9.63832 2.9717 9.94149 2.76896 10.2752 2.6306C10.6089 2.49224 10.9666 2.42098 11.3278 2.4209C11.6891 2.42081 12.0468 2.4919 12.3805 2.63011C12.7143 2.76831 13.0176 2.97092 13.273 3.22635C13.5284 3.48179 13.731 3.78505 13.8692 4.11881C14.0074 4.45258 14.0785 4.8103 14.0785 5.17154C14.0784 5.53278 14.0071 5.89047 13.8688 6.22416C13.7304 6.55786 13.5276 6.86103 13.2721 7.11635L11.5043 8.88411C11.249 9.13948 10.9458 9.34204 10.6122 9.48024C10.2785 9.61844 9.92091 9.68957 9.55978 9.68957C9.19864 9.68957 8.84104 9.61844 8.5074 9.48024C8.17375 9.34204 7.8706 9.13948 7.61523 8.88411" stroke="white" stroke-width="1.5" stroke-linecap="round" stroke-linejoin="round" />
<path d="M8.85281 11.5354L7.61537 12.7729C7.36005 13.0284 7.05688 13.2312 6.72319 13.3695C6.38949 13.5079 6.0318 13.5791 5.67056 13.5792C5.30932 13.5793 4.9516 13.5082 4.61784 13.37C4.28408 13.2318 3.98082 13.0292 3.72538 12.7738C3.46994 12.5183 3.26733 12.2151 3.12913 11.8813C2.99093 11.5475 2.91984 11.1898 2.91992 10.8286C2.92001 10.4673 2.99126 10.1096 3.12962 9.77595C3.26798 9.44226 3.47073 9.13909 3.72628 8.88377L5.49405 7.116C5.74941 6.86064 6.05257 6.65808 6.38621 6.51988C6.71986 6.38168 7.07746 6.31055 7.43859 6.31055C7.79973 6.31055 8.15733 6.38168 8.49097 6.51988C8.82462 6.65808 9.12778 6.86064 9.38314 7.116" stroke="white" stroke-width="1.5" stroke-linecap="round" stroke-linejoin="round" />
</symbol><symbol viewBox="0 0 16 16" fill="none" id="ShoppingBag">
<path d="M13.5 3H2.5C2.22386 3 2 3.22386 2 3.5V12.5C2 12.7761 2.22386 13 2.5 13H13.5C13.7761 13 14 12.7761 14 12.5V3.5C14 3.22386 13.7761 3 13.5 3Z" stroke="#F5F5F5" stroke-width="1.5" stroke-linecap="round" stroke-linejoin="round" />
<path d="M10.5 5.5C10.5 6.16304 10.2366 6.79893 9.76777 7.26777C9.29893 7.73661 8.66304 8 8 8C7.33696 8 6.70107 7.73661 6.23223 7.26777C5.76339 6.79893 5.5 6.16304 5.5 5.5" stroke="#F5F5F5" stroke-width="1.5" stroke-linecap="round" stroke-linejoin="round" />
</symbol><symbol viewBox="0 0 16 16" fill="none" id="StackSimple">
<path d="M1 6.5L8 10.5L15 6.5L8 2.5L1 6.5Z" stroke="#F5F5F5" stroke-width="1.5" stroke-linecap="round" stroke-linejoin="round" />
<path d="M1 9L8 13L15 9" stroke="#F5F5F5" stroke-width="1.5" stroke-linecap="round" stroke-linejoin="round" />
</symbol><symbol viewBox="0 0 16 16" fill="none" id="arrow">
<path d="M10 13L5 8L10 3" stroke="white" stroke-width="1.5" stroke-linecap="round" stroke-linejoin="round" />
</symbol><symbol viewBox="0 0 16 16" fill="none" id="close">
<path d="M12.5 3.5L3.5 12.5" stroke="#F5F5F5" stroke-width="1.5" stroke-linecap="round" stroke-linejoin="round" />
<path d="M12.5 12.5L3.5 3.5" stroke="#F5F5F5" stroke-width="1.5" stroke-linecap="round" stroke-linejoin="round" />
</symbol><symbol viewBox="0 0 17 16" fill="none" id="filter">
<path d="M4.5 8H12.5" stroke="#F5F5F5" stroke-width="1.5" stroke-linecap="round" stroke-linejoin="round" />
<path d="M2 5H15" stroke="#F5F5F5" stroke-width="1.5" stroke-linecap="round" stroke-linejoin="round" />
<path d="M7 11H10" stroke="#F5F5F5" stroke-width="1.5" stroke-linecap="round" stroke-linejoin="round" />
</symbol><symbol viewBox="0 0 182 40" fill="none" id="logo">
<path d="M60.635 25.18C59.545 25.18 58.635 24.93 57.905 24.43C57.185 23.93 56.745 23.235 56.585 22.345H58.31C58.44 22.805 58.69 23.145 59.06 23.365C59.43 23.575 59.965 23.68 60.665 23.68C61.215 23.68 61.645 23.6 61.955 23.44C62.275 23.27 62.435 23.035 62.435 22.735C62.435 22.535 62.355 22.37 62.195 22.24C62.045 22.11 61.865 22.015 61.655 21.955C61.455 21.895 61.125 21.81 60.665 21.7C60.495 21.66 60.365 21.63 60.275 21.61C59.045 21.31 58.19 21 57.71 20.68C57.23 20.35 56.99 19.855 56.99 19.195C56.99 18.375 57.305 17.735 57.935 17.275C58.575 16.805 59.42 16.57 60.47 16.57C61.5 16.57 62.315 16.795 62.915 17.245C63.525 17.685 63.91 18.295 64.07 19.075H62.36C62.12 18.405 61.48 18.07 60.44 18.07C59.9 18.07 59.475 18.155 59.165 18.325C58.855 18.495 58.7 18.725 58.7 19.015C58.7 19.265 58.825 19.45 59.075 19.57C59.325 19.68 59.85 19.83 60.65 20.02C61.17 20.14 61.58 20.245 61.88 20.335C62.19 20.415 62.51 20.525 62.84 20.665C63.17 20.805 63.42 20.955 63.59 21.115C63.76 21.275 63.9 21.475 64.01 21.715C64.12 21.945 64.175 22.22 64.175 22.54C64.175 23.39 63.84 24.045 63.17 24.505C62.51 24.955 61.665 25.18 60.635 25.18ZM71.484 16.75H73.299L67.839 28.75H66.024L68.199 23.95L64.944 16.75H66.759L69.099 22.12L71.484 16.75ZM78.0373 25.18C76.9473 25.18 76.0373 24.93 75.3073 24.43C74.5873 23.93 74.1473 23.235 73.9873 22.345H75.7123C75.8423 22.805 76.0923 23.145 76.4623 23.365C76.8323 23.575 77.3673 23.68 78.0673 23.68C78.6173 23.68 79.0473 23.6 79.3573 23.44C79.6773 23.27 79.8373 23.035 79.8373 22.735C79.8373 22.535 79.7573 22.37 79.5973 22.24C79.4473 22.11 79.2673 22.015 79.0573 21.955C78.8573 21.895 78.5273 21.81 78.0673 21.7C77.8973 21.66 77.7673 21.63 77.6773 21.61C76.4473 21.31 75.5923 21 75.1123 20.68C74.6323 20.35 74.3923 19.855 74.3923 19.195C74.3923 18.375 74.7073 17.735 75.3373 17.275C75.9773 16.805 76.8223 16.57 77.8723 16.57C78.9023 16.57 79.7173 16.795 80.3173 17.245C80.9273 17.685 81.3123 18.295 81.4723 19.075H79.7623C79.5223 18.405 78.8823 18.07 77.8423 18.07C77.3023 18.07 76.8773 18.155 76.5673 18.325C76.2573 18.495 76.1023 18.725 76.1023 19.015C76.1023 19.265 76.2273 19.45 76.4773 19.57C76.7273 19.68 77.2523 19.83 78.0523 20.02C78.5723 20.14 78.9823 20.245 79.2823 20.335C79.5923 20.415 79.9123 20.525 80.2423 20.665C80.5723 20.805 80.8223 20.955 80.9923 21.115C81.1623 21.275 81.3023 21.475 81.4123 21.715C81.5223 21.945 81.5773 22.22 81.5773 22.54C81.5773 23.39 81.2423 24.045 80.5723 24.505C79.9123 24.955 79.0673 25.18 78.0373 25.18ZM89.1221 23.2L89.4221 24.58C88.7521 24.98 87.9671 25.18 87.0671 25.18C86.1771 25.18 85.4521 24.895 84.8921 24.325C84.3321 23.755 84.0521 22.925 84.0521 21.835V18.34H82.5221V16.75H84.0521V14.875L85.7471 14.5V16.75H89.1371V18.34H85.7471V21.745C85.7471 22.985 86.2871 23.605 87.3671 23.605C87.7671 23.605 88.3521 23.47 89.1221 23.2ZM94.5689 16.57C95.8789 16.57 96.9189 17.025 97.6889 17.935C98.4689 18.835 98.8189 19.97 98.7389 21.34H92.0339C92.1039 22.08 92.3739 22.66 92.8439 23.08C93.3139 23.49 93.9039 23.695 94.6139 23.695C95.1139 23.695 95.5589 23.59 95.9489 23.38C96.3389 23.17 96.6289 22.865 96.8189 22.465H98.5739C98.2639 23.355 97.7539 24.03 97.0439 24.49C96.3339 24.95 95.5189 25.18 94.5989 25.18C93.3489 25.18 92.3189 24.78 91.5089 23.98C90.7089 23.17 90.3089 22.14 90.3089 20.89C90.3089 19.64 90.7089 18.61 91.5089 17.8C92.3089 16.98 93.3289 16.57 94.5689 16.57ZM94.5689 18.04C93.9389 18.04 93.4089 18.22 92.9789 18.58C92.5589 18.93 92.2739 19.39 92.1239 19.96H96.9239C96.7939 19.38 96.5189 18.915 96.0989 18.565C95.6889 18.215 95.1789 18.04 94.5689 18.04ZM109.993 16.57C110.863 16.57 111.543 16.85 112.033 17.41C112.533 17.96 112.783 18.725 112.783 19.705V25H111.088V20.065C111.088 18.815 110.543 18.19 109.453 18.19C108.803 18.19 108.303 18.42 107.953 18.88C107.603 19.34 107.428 19.955 107.428 20.725L107.443 25H105.733V20.065C105.733 18.815 105.188 18.19 104.098 18.19C103.448 18.19 102.948 18.42 102.598 18.88C102.258 19.34 102.088 19.955 102.088 20.725V25H100.393V16.75H102.088V18.07C102.688 17.07 103.543 16.57 104.653 16.57C105.933 16.57 106.783 17.145 107.203 18.295C107.803 17.145 108.733 16.57 109.993 16.57ZM121.11 16.75H122.805V25H121.11V23.62C120.45 24.66 119.49 25.18 118.23 25.18C117.12 25.18 116.205 24.78 115.485 23.98C114.775 23.17 114.42 22.135 114.42 20.875C114.42 19.625 114.78 18.595 115.5 17.785C116.22 16.975 117.125 16.57 118.215 16.57C119.475 16.57 120.44 17.1 121.11 18.16V16.75ZM118.59 23.56C119.32 23.56 119.925 23.31 120.405 22.81C120.885 22.31 121.125 21.665 121.125 20.875C121.125 20.095 120.885 19.455 120.405 18.955C119.925 18.445 119.32 18.19 118.59 18.19C117.87 18.19 117.28 18.44 116.82 18.94C116.36 19.44 116.13 20.085 116.13 20.875C116.13 21.665 116.36 22.31 116.82 22.81C117.28 23.31 117.87 23.56 118.59 23.56ZM130.753 23.2L131.053 24.58C130.383 24.98 129.598 25.18 128.698 25.18C127.808 25.18 127.083 24.895 126.523 24.325C125.963 23.755 125.683 22.925 125.683 21.835V18.34H124.153V16.75H125.683V14.875L127.378 14.5V16.75H130.768V18.34H127.378V21.745C127.378 22.985 127.918 23.605 128.998 23.605C129.398 23.605 129.983 23.47 130.753 23.2ZM133.445 13.03C133.765 13.03 134.03 13.13 134.24 13.33C134.45 13.52 134.555 13.765 134.555 14.065C134.555 14.375 134.45 14.63 134.24 14.83C134.03 15.03 133.765 15.13 133.445 15.13C133.135 15.13 132.875 15.03 132.665 14.83C132.455 14.63 132.35 14.375 132.35 14.065C132.35 13.765 132.455 13.52 132.665 13.33C132.875 13.13 133.135 13.03 133.445 13.03ZM132.605 25V16.75H134.3V25H132.605ZM140.272 25.18C139.052 25.18 138.032 24.77 137.212 23.95C136.402 23.13 135.997 22.105 135.997 20.875C135.997 19.645 136.402 18.62 137.212 17.8C138.032 16.98 139.057 16.57 140.287 16.57C141.287 16.57 142.167 16.86 142.927 17.44C143.687 18.01 144.157 18.78 144.337 19.75H142.582C142.432 19.24 142.147 18.845 141.727 18.565C141.307 18.285 140.827 18.145 140.287 18.145C139.527 18.145 138.907 18.4 138.427 18.91C137.947 19.42 137.707 20.075 137.707 20.875C137.707 21.675 137.947 22.33 138.427 22.84C138.907 23.35 139.522 23.605 140.272 23.605C140.822 23.605 141.302 23.46 141.712 23.17C142.132 22.88 142.422 22.485 142.582 21.985H144.337C144.147 22.975 143.672 23.755 142.912 24.325C142.152 24.895 141.272 25.18 140.272 25.18ZM152.311 16.75H154.006V25H152.311V23.62C151.651 24.66 150.691 25.18 149.431 25.18C148.321 25.18 147.406 24.78 146.686 23.98C145.976 23.17 145.621 22.135 145.621 20.875C145.621 19.625 145.981 18.595 146.701 17.785C147.421 16.975 148.326 16.57 149.416 16.57C150.676 16.57 151.641 17.1 152.311 18.16V16.75ZM149.791 23.56C150.521 23.56 151.126 23.31 151.606 22.81C152.086 22.31 152.326 21.665 152.326 20.875C152.326 20.095 152.086 19.455 151.606 18.955C151.126 18.445 150.521 18.19 149.791 18.19C149.071 18.19 148.481 18.44 148.021 18.94C147.561 19.44 147.331 20.085 147.331 20.875C147.331 21.665 147.561 22.31 148.021 22.81C148.481 23.31 149.071 23.56 149.791 23.56ZM156.524 23.365C156.734 23.165 156.999 23.065 157.319 23.065C157.639 23.065 157.904 23.165 158.114 23.365C158.324 23.555 158.429 23.805 158.429 24.115C158.429 24.425 158.324 24.68 158.114 24.88C157.904 25.08 157.639 25.18 157.319 25.18C156.999 25.18 156.734 25.08 156.524 24.88C156.324 24.68 156.224 24.425 156.224 24.115C156.224 23.805 156.324 23.555 156.524 23.365ZM161.468 13.03C161.788 13.03 162.053 13.13 162.263 13.33C162.473 13.52 162.578 13.765 162.578 14.065C162.578 14.375 162.473 14.63 162.263 14.83C162.053 15.03 161.788 15.13 161.468 15.13C161.158 15.13 160.898 15.03 160.688 14.83C160.478 14.63 160.373 14.375 160.373 14.065C160.373 13.765 160.478 13.52 160.688 13.33C160.898 13.13 161.158 13.03 161.468 13.03ZM160.628 25V16.75H162.323V25H160.628ZM168.295 16.57C169.495 16.57 170.505 16.98 171.325 17.8C172.155 18.62 172.57 19.645 172.57 20.875C172.57 22.105 172.16 23.13 171.34 23.95C170.52 24.77 169.505 25.18 168.295 25.18C167.095 25.18 166.08 24.77 165.25 23.95C164.43 23.12 164.02 22.095 164.02 20.875C164.02 19.645 164.435 18.62 165.265 17.8C166.095 16.98 167.105 16.57 168.295 16.57ZM170.11 18.955C169.62 18.445 169.015 18.19 168.295 18.19C167.575 18.19 166.965 18.445 166.465 18.955C165.975 19.455 165.73 20.095 165.73 20.875C165.73 21.665 165.975 22.31 166.465 22.81C166.955 23.31 167.565 23.56 168.295 23.56C169.025 23.56 169.635 23.31 170.125 22.81C170.615 22.31 170.86 21.665 170.86 20.875C170.86 20.095 170.61 19.455 170.11 18.955Z" fill="#F5F5F5" />
<circle cx="20" cy="20" r="19.5" fill="#F5F5F5" stroke="#F5F5F5" />
<path d="M10.8736 18.1815C10.7048 17.5607 11.0787 16.9227 11.7087 16.7563L27.6794 12.5399C28.3094 12.3736 28.957 12.742 29.1258 13.3628C29.2946 13.9835 28.9207 14.6216 28.2907 14.7879L12.32 19.0043C11.69 19.1706 11.0424 18.8022 10.8736 18.1815Z" fill="#060901" />
<path d="M10.8735 17.5883C11.0424 16.9675 11.6899 16.5991 12.32 16.7654L28.2906 20.9818C28.9207 21.1482 29.2945 21.7862 29.1257 22.407C28.9569 23.0278 28.3093 23.3961 27.6793 23.2298L11.7086 19.0134C11.0786 18.8471 10.7047 18.209 10.8735 17.5883Z" fill="#060901" />
<path d="M10.8736 26.6372C10.7048 26.0165 11.0787 25.3784 11.7087 25.2121L27.6794 20.9957C28.3094 20.8294 28.957 21.1978 29.1258 21.8185C29.2946 22.4393 28.9207 23.0773 28.2907 23.2437L12.32 27.4601C11.69 27.6264 11.0424 27.258 10.8736 26.6372Z" fill="#060901" />
</symbol><symbol viewBox="0 0 16 16" fill="none" id="mobile">
<path d="M12 13.5V2.5C12 1.94772 11.5523 1.5 11 1.5L5 1.5C4.44772 1.5 4 1.94772 4 2.5L4 13.5C4 14.0523 4.44772 14.5 5 14.5H11C11.5523 14.5 12 14.0523 12 13.5Z" stroke="white" stroke-width="1.5" stroke-linecap="round" stroke-linejoin="round" />
<path d="M6 3.5H10" stroke="white" stroke-width="1.5" stroke-linecap="round" stroke-linejoin="round" />
</symbol><symbol viewBox="0 0 17 16" fill="none" id="mon">
<path d="M3.5 12L13.5 12C14.0523 12 14.5 11.5523 14.5 11L14.5 4C14.5 3.44771 14.0523 3 13.5 3L3.5 3C2.94771 3 2.5 3.44771 2.5 4L2.5 11C2.5 11.5523 2.94771 12 3.5 12Z" stroke="white" stroke-width="1.5" stroke-linecap="round" stroke-linejoin="round" />
<path d="M10.5 14H6.5" stroke="white" stroke-width="1.5" stroke-linecap="round" stroke-linejoin="round" />
</symbol><symbol viewBox="0 0 16 16" fill="none" id="search">
<path d="M7.25 12.5C10.1495 12.5 12.5 10.1495 12.5 7.25C12.5 4.35051 10.1495 2 7.25 2C4.35051 2 2 4.35051 2 7.25C2 10.1495 4.35051 12.5 7.25 12.5Z" stroke="#F5F5F5" stroke-width="1.5" stroke-linecap="round" stroke-linejoin="round" />
<path d="M10.962 10.9625L13.9996 14.0001" stroke="#F5F5F5" stroke-width="1.5" stroke-linecap="round" stroke-linejoin="round" />
</symbol><symbol viewBox="0 0 48 48" fill="none" id="small-logo">
<circle cx="24" cy="24" r="23.5" fill="#F5F5F5" stroke="#F5F5F5" />
<path d="M13.0487 21.8178C12.8461 21.0729 13.2948 20.3072 14.0508 20.1076L33.2156 15.0479C33.9717 14.8483 34.7488 15.2904 34.9514 16.0353C35.1539 16.7802 34.7053 17.5459 33.9492 17.7455L14.7844 22.8052C14.0284 23.0048 13.2513 22.5627 13.0487 21.8178Z" fill="#060901" />
<path d="M13.0486 21.1059C13.2512 20.361 14.0283 19.9189 14.7844 20.1185L33.9492 25.1782C34.7052 25.3778 35.1538 26.1435 34.9513 26.8884C34.7487 27.6333 33.9716 28.0754 33.2156 27.8758L14.0508 22.8161C13.2947 22.6165 12.8461 21.8508 13.0486 21.1059Z" fill="#060901" />
<path d="M13.0487 31.9647C12.8461 31.2198 13.2948 30.4541 14.0508 30.2545L33.2156 25.1948C33.9717 24.9952 34.7488 25.4373 34.9514 26.1822C35.1539 26.9271 34.7053 27.6928 33.9492 27.8924L14.7844 32.9521C14.0284 33.1517 13.2513 32.7096 13.0487 31.9647Z" fill="#060901" />
</symbol><symbol viewBox="0 0 16 16" fill="none" id="tablet">
<path d="M13 13V3C13 2.44772 12.5523 2 12 2L4 2C3.44771 2 3 2.44772 3 3V13C3 13.5523 3.44771 14 4 14H12C12.5523 14 13 13.5523 13 13Z" stroke="white" stroke-width="1.5" stroke-linecap="round" stroke-linejoin="round" />
<path d="M6 4H10" stroke="white" stroke-width="1.5" stroke-linecap="round" stroke-linejoin="round" />
</symbol></defs><use id="BookmarksSimple-usage" xlink:href="#BookmarksSimple" class="sprite-symbol-usage" /><use id="ChartLineUp-usage" xlink:href="#ChartLineUp" class="sprite-symbol-usage" /><use id="CirclesFour-usage" xlink:href="#CirclesFour" class="sprite-symbol-usage" /><use id="Eyedropper-usage" xlink:href="#Eyedropper" class="sprite-symbol-usage" /><use id="Link-usage" xlink:href="#Link" class="sprite-symbol-usage" /><use id="ShoppingBag-usage" xlink:href="#ShoppingBag" class="sprite-symbol-usage" /><use id="StackSimple-usage" xlink:href="#StackSimple" class="sprite-symbol-usage" /><use id="arrow-usage" xlink:href="#arrow" class="sprite-symbol-usage" /><use id="close-usage" xlink:href="#close" class="sprite-symbol-usage" /><use id="filter-usage" xlink:href="#filter" class="sprite-symbol-usage" /><use id="logo-usage" xlink:href="#logo" class="sprite-symbol-usage" /><use id="mobile-usage" xlink:href="#mobile" class="sprite-symbol-usage" /><use id="mon-usage" xlink:href="#mon" class="sprite-symbol-usage" /><use id="search-usage" xlink:href="#search" class="sprite-symbol-usage" /><use id="small-logo-usage" xlink:href="#small-logo" class="sprite-symbol-usage" /><use id="tablet-usage" xlink:href="#tablet" class="sprite-symbol-usage" /></svg>