<svg width="182" height="40" viewBox="0 0 182 40" fill="none" xmlns="http://www.w3.org/2000/svg">
<g clip-path="url(#clip0_308_3697)">
<path d="M60.976 26.192C59.792 26.192 58.8053 25.92 58.016 25.376C57.2267 24.8213 56.752 24.064 56.592 23.104H58.912C59.104 23.8933 59.8133 24.288 61.04 24.288C62.032 24.288 62.528 24.048 62.528 23.568C62.528 23.504 62.5173 23.4453 62.496 23.392C62.4853 23.3387 62.4587 23.2907 62.416 23.248C62.384 23.2053 62.3467 23.168 62.304 23.136C62.2613 23.0933 62.1973 23.056 62.112 23.024C62.0373 22.992 61.968 22.9653 61.904 22.944C61.84 22.9227 61.744 22.896 61.616 22.864C61.4987 22.832 61.392 22.8053 61.296 22.784C61.2107 22.7627 61.088 22.736 60.928 22.704C60.768 22.672 60.6293 22.64 60.512 22.608C59.2 22.2987 58.2827 21.9627 57.76 21.6C57.248 21.2267 56.992 20.672 56.992 19.936C56.992 19.0187 57.3387 18.304 58.032 17.792C58.736 17.2693 59.6747 17.008 60.848 17.008C62.0213 17.008 62.9333 17.264 63.584 17.776C64.2347 18.2773 64.64 18.96 64.8 19.824H62.48C62.288 19.2267 61.7173 18.928 60.768 18.928C59.7867 18.928 59.296 19.1733 59.296 19.664C59.296 19.856 59.3973 19.9947 59.6 20.08C59.8027 20.1653 60.2613 20.288 60.976 20.448C61.6907 20.608 62.256 20.7573 62.672 20.896C63.088 21.024 63.4827 21.1947 63.856 21.408C64.2293 21.6213 64.496 21.8773 64.656 22.176C64.816 22.4747 64.896 22.8373 64.896 23.264C64.896 24.2133 64.528 24.9387 63.792 25.44C63.056 25.9413 62.1173 26.192 60.976 26.192ZM72.3708 17.2H74.8188L69.0908 30H66.6588L68.9628 24.832L65.5708 17.2H68.0028L70.1788 22.352L72.3708 17.2ZM79.7416 26.192C78.5576 26.192 77.571 25.92 76.7816 25.376C75.9923 24.8213 75.5176 24.064 75.3576 23.104H77.6776C77.8696 23.8933 78.579 24.288 79.8056 24.288C80.7976 24.288 81.2936 24.048 81.2936 23.568C81.2936 23.504 81.283 23.4453 81.2616 23.392C81.251 23.3387 81.2243 23.2907 81.1816 23.248C81.1496 23.2053 81.1123 23.168 81.0696 23.136C81.027 23.0933 80.963 23.056 80.8776 23.024C80.803 22.992 80.7336 22.9653 80.6696 22.944C80.6056 22.9227 80.5096 22.896 80.3816 22.864C80.2643 22.832 80.1576 22.8053 80.0616 22.784C79.9763 22.7627 79.8536 22.736 79.6936 22.704C79.5336 22.672 79.395 22.64 79.2776 22.608C77.9656 22.2987 77.0483 21.9627 76.5256 21.6C76.0136 21.2267 75.7576 20.672 75.7576 19.936C75.7576 19.0187 76.1043 18.304 76.7976 17.792C77.5016 17.2693 78.4403 17.008 79.6136 17.008C80.787 17.008 81.699 17.264 82.3496 17.776C83.0003 18.2773 83.4056 18.96 83.5656 19.824H81.2456C81.0536 19.2267 80.483 18.928 79.5336 18.928C78.5523 18.928 78.0616 19.1733 78.0616 19.664C78.0616 19.856 78.163 19.9947 78.3656 20.08C78.5683 20.1653 79.027 20.288 79.7416 20.448C80.4563 20.608 81.0216 20.7573 81.4376 20.896C81.8536 21.024 82.2483 21.1947 82.6216 21.408C82.995 21.6213 83.2616 21.8773 83.4216 22.176C83.5816 22.4747 83.6616 22.8373 83.6616 23.264C83.6616 24.2133 83.2936 24.9387 82.5576 25.44C81.8216 25.9413 80.883 26.192 79.7416 26.192ZM91.6904 23.632L92.0744 25.488C91.8077 25.6693 91.4237 25.8347 90.9224 25.984C90.4317 26.1227 89.941 26.192 89.4504 26.192C88.501 26.192 87.7117 25.8933 87.0824 25.296C86.4637 24.6987 86.1544 23.8027 86.1544 22.608V19.36H84.5864V17.2H86.1544V15.296L88.4424 14.8V17.2H91.7064V19.36H88.4424V22.48C88.4424 23.536 88.9117 24.064 89.8504 24.064C90.2664 24.064 90.8797 23.92 91.6904 23.632ZM97.4991 17.008C98.9391 17.008 100.075 17.504 100.907 18.496C101.75 19.488 102.112 20.72 101.995 22.192H95.2431C95.3178 22.8747 95.5631 23.3973 95.9791 23.76C96.3951 24.1227 96.9125 24.304 97.5311 24.304C97.9791 24.304 98.3791 24.208 98.7311 24.016C99.0831 23.8133 99.3338 23.5413 99.4831 23.2H101.851C101.542 24.192 100.998 24.9387 100.219 25.44C99.4405 25.9413 98.5498 26.192 97.5471 26.192C96.1818 26.192 95.0671 25.76 94.2031 24.896C93.3391 24.032 92.9071 22.9387 92.9071 21.616C92.9071 20.2933 93.3391 19.1947 94.2031 18.32C95.0671 17.4453 96.1658 17.008 97.4991 17.008ZM97.4831 18.896C96.9391 18.896 96.4858 19.0453 96.1231 19.344C95.7605 19.632 95.5045 20.0213 95.3551 20.512H99.5631C99.4351 20.0213 99.1898 19.632 98.8271 19.344C98.4645 19.0453 98.0165 18.896 97.4831 18.896ZM114.081 17.008C115.019 17.008 115.761 17.312 116.305 17.92C116.849 18.528 117.121 19.3653 117.121 20.432V26H114.833V20.928C114.833 20.352 114.71 19.92 114.465 19.632C114.23 19.3333 113.846 19.184 113.313 19.184C112.715 19.184 112.262 19.376 111.953 19.76C111.643 20.1333 111.489 20.672 111.489 21.376V26H109.201V20.928C109.201 20.352 109.078 19.92 108.833 19.632C108.598 19.3333 108.214 19.184 107.681 19.184C107.083 19.184 106.625 19.376 106.305 19.76C105.995 20.1333 105.841 20.672 105.841 21.376L105.857 26H103.553V17.2H105.857V18.368C106.497 17.4613 107.366 17.008 108.465 17.008C109.745 17.008 110.635 17.5627 111.137 18.672C111.819 17.5627 112.801 17.008 114.081 17.008ZM125.441 17.2H127.729L127.713 26H125.425V24.816C124.753 25.7333 123.836 26.192 122.673 26.192C121.51 26.192 120.55 25.7653 119.793 24.912C119.036 24.048 118.657 22.944 118.657 21.6C118.657 20.256 119.036 19.1573 119.793 18.304C120.561 17.44 121.516 17.008 122.657 17.008C123.83 17.008 124.758 17.4827 125.441 18.432V17.2ZM123.185 24.016C123.836 24.016 124.374 23.792 124.801 23.344C125.228 22.896 125.441 22.3147 125.441 21.6C125.441 20.8853 125.228 20.304 124.801 19.856C124.374 19.408 123.836 19.184 123.185 19.184C122.534 19.184 122.001 19.408 121.585 19.856C121.169 20.304 120.961 20.8853 120.961 21.6C120.961 22.3147 121.169 22.896 121.585 23.344C122.012 23.792 122.545 24.016 123.185 24.016ZM136.097 23.632L136.481 25.488C136.214 25.6693 135.83 25.8347 135.329 25.984C134.838 26.1227 134.347 26.192 133.857 26.192C132.907 26.192 132.118 25.8933 131.489 25.296C130.87 24.6987 130.561 23.8027 130.561 22.608V19.36H128.993V17.2H130.561V15.296L132.849 14.8V17.2H136.113V19.36H132.849V22.48C132.849 23.536 133.318 24.064 134.257 24.064C134.673 24.064 135.286 23.92 136.097 23.632ZM139.127 13.136C139.543 13.136 139.884 13.264 140.151 13.52C140.417 13.7653 140.551 14.0853 140.551 14.48C140.551 14.8747 140.417 15.2 140.151 15.456C139.884 15.712 139.543 15.84 139.127 15.84C138.721 15.84 138.38 15.712 138.103 15.456C137.836 15.2 137.703 14.8747 137.703 14.48C137.703 14.096 137.836 13.776 138.103 13.52C138.38 13.264 138.721 13.136 139.127 13.136ZM137.975 26V17.2H140.263V26H137.975ZM146.468 26.192C145.156 26.192 144.062 25.7547 143.188 24.88C142.324 24.0053 141.892 22.912 141.892 21.6C141.892 20.288 142.324 19.1947 143.188 18.32C144.062 17.4453 145.161 17.008 146.484 17.008C147.593 17.008 148.558 17.328 149.38 17.968C150.212 18.5973 150.708 19.456 150.868 20.544H148.516C148.388 20.0853 148.137 19.7333 147.764 19.488C147.401 19.2427 146.974 19.12 146.484 19.12C145.79 19.12 145.236 19.3493 144.82 19.808C144.404 20.2667 144.201 20.864 144.212 21.6C144.201 22.336 144.404 22.9333 144.82 23.392C145.246 23.8507 145.796 24.08 146.468 24.08C146.958 24.08 147.39 23.9573 147.764 23.712C148.137 23.4667 148.388 23.1093 148.516 22.64H150.868C150.697 23.76 150.196 24.6347 149.364 25.264C148.542 25.8827 147.577 26.192 146.468 26.192ZM158.894 17.2H161.182L161.166 26H158.878V24.816C158.206 25.7333 157.289 26.192 156.126 26.192C154.964 26.192 154.004 25.7653 153.246 24.912C152.489 24.048 152.11 22.944 152.11 21.6C152.11 20.256 152.489 19.1573 153.246 18.304C154.014 17.44 154.969 17.008 156.11 17.008C157.284 17.008 158.212 17.4827 158.894 18.432V17.2ZM156.638 24.016C157.289 24.016 157.828 23.792 158.254 23.344C158.681 22.896 158.894 22.3147 158.894 21.6C158.894 20.8853 158.681 20.304 158.254 19.856C157.828 19.408 157.289 19.184 156.638 19.184C155.988 19.184 155.454 19.408 155.038 19.856C154.622 20.304 154.414 20.8853 154.414 21.6C154.414 22.3147 154.622 22.896 155.038 23.344C155.465 23.792 155.998 24.016 156.638 24.016ZM163.71 23.856C163.987 23.6 164.328 23.472 164.734 23.472C165.139 23.472 165.475 23.6 165.742 23.856C166.019 24.112 166.158 24.4373 166.158 24.832C166.158 25.2267 166.019 25.552 165.742 25.808C165.475 26.064 165.139 26.192 164.734 26.192C164.328 26.192 163.987 26.064 163.71 25.808C163.443 25.552 163.31 25.2267 163.31 24.832C163.31 24.4373 163.443 24.112 163.71 23.856ZM169.423 13.136C169.839 13.136 170.181 13.264 170.447 13.52C170.714 13.7653 170.847 14.0853 170.847 14.48C170.847 14.8747 170.714 15.2 170.447 15.456C170.181 15.712 169.839 15.84 169.423 15.84C169.018 15.84 168.677 15.712 168.399 15.456C168.133 15.2 167.999 14.8747 167.999 14.48C167.999 14.096 168.133 13.776 168.399 13.52C168.677 13.264 169.018 13.136 169.423 13.136ZM168.271 26V17.2H170.559V26H168.271ZM173.516 18.32C174.402 17.4453 175.484 17.008 176.764 17.008C178.044 17.008 179.127 17.4453 180.012 18.32C180.908 19.1947 181.356 20.288 181.356 21.6C181.356 22.9227 180.914 24.0213 180.028 24.896C179.154 25.76 178.066 26.192 176.764 26.192C175.474 26.192 174.386 25.7547 173.5 24.88C172.626 24.0053 172.188 22.912 172.188 21.6C172.188 20.288 172.631 19.1947 173.516 18.32ZM178.38 19.856C177.954 19.408 177.415 19.184 176.764 19.184C176.114 19.184 175.57 19.408 175.132 19.856C174.706 20.304 174.492 20.8853 174.492 21.6C174.492 22.3147 174.706 22.896 175.132 23.344C175.57 23.792 176.114 24.016 176.764 24.016C177.415 24.016 177.954 23.792 178.38 23.344C178.818 22.896 179.036 22.3147 179.036 21.6C179.036 20.8853 178.818 20.304 178.38 19.856Z" fill="#F5F5F5"/>
<circle cx="20" cy="20" r="19.5" fill="#F5F5F5" stroke="#F5F5F5"/>
<path d="M10.8739 18.1815C10.705 17.5607 11.0789 16.9227 11.709 16.7563L27.6796 12.5399C28.3096 12.3736 28.9572 12.742 29.126 13.3628C29.2949 13.9835 28.921 14.6216 28.291 14.7879L12.3203 19.0043C11.6903 19.1706 11.0427 18.8022 10.8739 18.1815Z" fill="#060901"/>
<path d="M10.8738 17.5883C11.0426 16.9675 11.6902 16.5991 12.3202 16.7654L28.2909 20.9818C28.9209 21.1482 29.2948 21.7862 29.126 22.407C28.9572 23.0278 28.3096 23.3961 27.6796 23.2298L11.7089 19.0134C11.0789 18.8471 10.705 18.209 10.8738 17.5883Z" fill="#060901"/>
<path d="M10.8739 26.6372C10.705 26.0165 11.0789 25.3784 11.709 25.2121L27.6796 20.9957C28.3096 20.8294 28.9572 21.1978 29.126 21.8185C29.2949 22.4393 28.921 23.0773 28.291 23.2437L12.3203 27.4601C11.6903 27.6264 11.0427 27.258 10.8739 26.6372Z" fill="#060901"/>
</g>
<defs>
<clipPath id="clip0_308_3697">
<rect width="182" height="40" fill="white"/>
</clipPath>
</defs>
</svg>
