<svg width="48" height="48" viewBox="0 0 48 48"    xmlns="http://www.w3.org/2000/svg">
<circle cx="24" cy="24" r="23.5" fill="#F5F5F5"   />
<path d="M13.0487 21.8178C12.8461 21.0729 13.2948 20.3072 14.0508 20.1076L33.2156 15.0479C33.9717 14.8483 34.7488 15.2904 34.9514 16.0353C35.1539 16.7802 34.7053 17.5459 33.9492 17.7455L14.7844 22.8052C14.0284 23.0048 13.2513 22.5627 13.0487 21.8178Z" fill="#060901"/>
<path d="M13.0486 21.1059C13.2512 20.361 14.0283 19.9189 14.7844 20.1185L33.9492 25.1782C34.7052 25.3778 35.1538 26.1435 34.9513 26.8884C34.7487 27.6333 33.9716 28.0754 33.2156 27.8758L14.0508 22.8161C13.2947 22.6165 12.8461 21.8508 13.0486 21.1059Z" fill="#060901"/>
<path d="M13.0487 31.9647C12.8461 31.2198 13.2948 30.4541 14.0508 30.2545L33.2156 25.1948C33.9717 24.9952 34.7488 25.4373 34.9514 26.1822C35.1539 26.9271 34.7053 27.6928 33.9492 27.8924L14.7844 32.9521C14.0284 33.1517 13.2513 32.7096 13.0487 31.9647Z" fill="#060901"/>
</svg>
