<svg width="17" height="16" viewBox="0 0 17 16"    xmlns="http://www.w3.org/2000/svg">
<path d="M5.25 7C6.49264 7 7.5 5.99264 7.5 4.75C7.5 3.50736 6.49264 2.5 5.25 2.5C4.00736 2.5 3 3.50736 3 4.75C3 5.99264 4.00736 7 5.25 7Z"    stroke-width="1.5" stroke-linecap="round" stroke-linejoin="round"/>
<path d="M11.75 7C12.9926 7 14 5.99264 14 4.75C14 3.50736 12.9926 2.5 11.75 2.5C10.5074 2.5 9.5 3.50736 9.5 4.75C9.5 5.99264 10.5074 7 11.75 7Z"    stroke-width="1.5" stroke-linecap="round" stroke-linejoin="round"/>
<path d="M5.25 13.5C6.49264 13.5 7.5 12.4926 7.5 11.25C7.5 10.0074 6.49264 9 5.25 9C4.00736 9 3 10.0074 3 11.25C3 12.4926 4.00736 13.5 5.25 13.5Z"    stroke-width="1.5" stroke-linecap="round" stroke-linejoin="round"/>
<path d="M11.75 13.5C12.9926 13.5 14 12.4926 14 11.25C14 10.0074 12.9926 9 11.75 9C10.5074 9 9.5 10.0074 9.5 11.25C9.5 12.4926 10.5074 13.5 11.75 13.5Z"    stroke-width="1.5" stroke-linecap="round" stroke-linejoin="round"/>
</svg>
