<svg width="16" height="16" viewBox="0 0 16 16" fill="none" xmlns="http://www.w3.org/2000/svg">
<path d="M11.2375 7.23746L11.5429 7.54292C11.6358 7.63577 11.7095 7.74601 11.7597 7.86734C11.81 7.98866 11.8358 8.1187 11.8358 8.25002C11.8358 8.38134 11.81 8.51138 11.7597 8.63271C11.7095 8.75403 11.6358 8.86427 11.5429 8.95713L11.1036 9.39647C11.0098 9.49024 10.8827 9.54291 10.75 9.54291C10.6174 9.54291 10.4903 9.49024 10.3965 9.39647L6.6036 5.60357C6.50983 5.50981 6.45715 5.38263 6.45715 5.25002C6.45715 5.11741 6.50983 4.99024 6.6036 4.89647L7.04294 4.45713C7.1358 4.36427 7.24604 4.29061 7.36736 4.24036C7.48869 4.1901 7.61872 4.16424 7.75005 4.16424C7.88137 4.16424 8.0114 4.1901 8.13273 4.24036C8.25406 4.29061 8.3643 4.36427 8.45715 4.45713L8.76261 4.76258L10.4869 3.03833C11.1611 2.36406 12.2597 2.32276 12.9522 2.97829C13.1222 3.139 13.2583 3.33218 13.3524 3.54639C13.4464 3.7606 13.4966 3.9915 13.4999 4.22543C13.5032 4.45936 13.4595 4.69157 13.3715 4.90834C13.2835 5.12511 13.1529 5.32203 12.9875 5.48746L11.2375 7.23746Z" stroke="#F5F5F5" stroke-width="1.5" stroke-linecap="round" stroke-linejoin="round"/>
<path d="M9.9142 8.91412L6.4142 12.4141C6.16602 12.6625 5.8568 12.8412 5.51764 12.9321C5.17849 13.023 4.82138 13.023 4.48223 12.9321L3.01959 13.5706C2.92748 13.6108 2.82539 13.6223 2.72664 13.6037C2.62788 13.585 2.53705 13.537 2.46598 13.4659V13.4659C2.41496 13.4149 2.3805 13.3497 2.36709 13.2788C2.35368 13.2079 2.36195 13.1346 2.39082 13.0684L3.06782 11.5177C2.97689 11.1785 2.97689 10.8214 3.06781 10.4823C3.15874 10.1431 3.33738 9.83388 3.58577 9.58569L7.08577 6.08569" stroke="#F5F5F5" stroke-width="1.5" stroke-linecap="round" stroke-linejoin="round"/>
</svg>
