<svg width="17" height="16" viewBox="0 0 17 16"    xmlns="http://www.w3.org/2000/svg">
<path d="M8.14556 4.4647L9.383 3.22726C9.63832 2.9717 9.94149 2.76896 10.2752 2.6306C10.6089 2.49224 10.9666 2.42098 11.3278 2.4209C11.6891 2.42081 12.0468 2.4919 12.3805 2.63011C12.7143 2.76831 13.0176 2.97092 13.273 3.22635C13.5284 3.48179 13.731 3.78505 13.8692 4.11881C14.0074 4.45258 14.0785 4.8103 14.0785 5.17154C14.0784 5.53278 14.0071 5.89047 13.8688 6.22416C13.7304 6.55786 13.5276 6.86103 13.2721 7.11635L11.5043 8.88411C11.249 9.13948 10.9458 9.34204 10.6122 9.48024C10.2785 9.61844 9.92091 9.68957 9.55978 9.68957C9.19864 9.68957 8.84104 9.61844 8.5074 9.48024C8.17375 9.34204 7.8706 9.13948 7.61523 8.88411" stroke="white" stroke-width="1.5" stroke-linecap="round" stroke-linejoin="round"/>
<path d="M8.85281 11.5354L7.61537 12.7729C7.36005 13.0284 7.05688 13.2312 6.72319 13.3695C6.38949 13.5079 6.0318 13.5791 5.67056 13.5792C5.30932 13.5793 4.9516 13.5082 4.61784 13.37C4.28408 13.2318 3.98082 13.0292 3.72538 12.7738C3.46994 12.5183 3.26733 12.2151 3.12913 11.8813C2.99093 11.5475 2.91984 11.1898 2.91992 10.8286C2.92001 10.4673 2.99126 10.1096 3.12962 9.77595C3.26798 9.44226 3.47073 9.13909 3.72628 8.88377L5.49405 7.116C5.74941 6.86064 6.05257 6.65808 6.38621 6.51988C6.71986 6.38168 7.07746 6.31055 7.43859 6.31055C7.79973 6.31055 8.15733 6.38168 8.49097 6.51988C8.82462 6.65808 9.12778 6.86064 9.38314 7.116" stroke="white" stroke-width="1.5" stroke-linecap="round" stroke-linejoin="round"/>
</svg>
